<svg xmlns="http://www.w3.org/2000/svg" viewBox="0 0 640 360">
  <rect width="640" height="360" fill="#f3fbf6"/>
  <rect x="64" y="76" width="232" height="208" rx="18" fill="#ffffff" stroke="#b8d9c4" stroke-width="3"/>
  <path d="M100 128h150M100 180h150M100 232h150" stroke="#2c7a56" stroke-width="15" stroke-linecap="round"/>
  <g fill="#2c7a56">
    <circle cx="118" cy="128" r="22" opacity=".18"/>
    <circle cx="178" cy="180" r="22" opacity=".18"/>
    <circle cx="238" cy="232" r="22" opacity=".18"/>
  </g>
  <path d="M314 180h70" stroke="#cf8d24" stroke-width="8" stroke-linecap="round"/>
  <path d="M368 158l24 22-24 22" fill="none" stroke="#cf8d24" stroke-width="8" stroke-linecap="round" stroke-linejoin="round"/>
  <g transform="translate(408 70)" fill="#ffffff" stroke="#2c7a56" stroke-width="4">
    <rect x="0" y="0" width="70" height="70" rx="14"/>
    <rect x="92" y="0" width="70" height="70" rx="14"/>
    <rect x="0" y="92" width="70" height="70" rx="14"/>
    <rect x="92" y="92" width="70" height="70" rx="14"/>
  </g>
  <g stroke="#2c7a56" stroke-width="8" stroke-linecap="round">
    <path d="M431 105h24M431 127h24M523 105h24M523 127h24M431 197h24M431 219h24M523 197h24M523 219h24"/>
  </g>
  <path d="M442 288c40 18 88 18 128 0" fill="none" stroke="#b8d9c4" stroke-width="7" stroke-linecap="round"/>
</svg>
